HIERARCHY
ROOT Hips
{
	OFFSET 0.000000 0.000000 0.000000 
	CHANNELS 6 Xposition Yposition Zposition Zrotation Yrotation Xrotation
	JOINT LeftUpLeg
	{
		OFFSET 1.363060 -1.794630 0.839290 
		CHANNELS 3 Zrotation Yrotation Xrotation
		JOINT LeftLeg
		{
			OFFSET 2.448110 -6.726130 0.000000 
			CHANNELS 3 Zrotation Yrotation Xrotation
			JOINT LeftFoot
			{
				OFFSET 2.562200 -7.039590 0.000000 
				CHANNELS 3 Zrotation Yrotation Xrotation
				JOINT LeftToeBase
				{
					OFFSET 0.157640 -0.433110 2.322550 
					CHANNELS 3 Zrotation Yrotation Xrotation
					End Site
					{
						OFFSET 0.000000 0.000000 0.000000 
					}
				}
			}
		}
	}
	JOINT RightUpLeg
	{
		OFFSET -1.305520 -1.794630 0.839290 
		CHANNELS 3 Zrotation Yrotation Xrotation
		JOINT RightLeg
		{
			OFFSET -2.542530 -6.985550 0.000000 
			CHANNELS 3 Zrotation Yrotation Xrotation
			JOINT RightFoot
			{
				OFFSET -2.568260 -7.056230 0.000000 
				CHANNELS 3 Zrotation Yrotation Xrotation
				JOINT RightToeBase
				{
					OFFSET -0.164730 -0.452590 2.363150 
					CHANNELS 3 Zrotation Yrotation Xrotation
					End Site
					{
						OFFSET 0.000000 0.000000 0.000000 
					}
				}
			}
		}
	}
	JOINT Spine
	{
		OFFSET 0.028270 2.035590 -0.193380 
		CHANNELS 3 Zrotation Yrotation Xrotation
		JOINT Spine1
		{
			OFFSET 0.056720 2.048850 -0.042750 
			CHANNELS 3 Zrotation Yrotation Xrotation
			JOINT Neck1
			{
				OFFSET -0.054170 1.746240 0.172020 
				CHANNELS 3 Zrotation Yrotation Xrotation
				JOINT Head
				{
					OFFSET 0.104070 1.761360 -0.123970 
					CHANNELS 3 Zrotation Yrotation Xrotation
					End Site
					{
						OFFSET 0.000000 0.000000 0.000000 
					}
				}
			}
			JOINT LeftArm
			{
				OFFSET 3.362410 1.200890 -0.311210 
				CHANNELS 3 Zrotation Yrotation Xrotation
				JOINT LeftForeArm
				{
					OFFSET 4.983000 -0.000000 -0.000000 
					CHANNELS 3 Zrotation Yrotation Xrotation
					JOINT LeftHand
					{
						OFFSET 3.483560 -0.000000 -0.000000 
						CHANNELS 3 Zrotation Yrotation Xrotation
						JOINT LeftHandIndex1
						{
							OFFSET 0.715260 -0.000000 -0.000000 
							CHANNELS 3 Zrotation Yrotation Xrotation
							End Site
							{
								OFFSET 0.000000 0.000000 0.000000 
							}
						}
					}
				}
			}
			JOINT RightArm
			{
				OFFSET -3.136600 1.374050 -0.404650 
				CHANNELS 3 Zrotation Yrotation Xrotation
				JOINT RightForeArm
				{
					OFFSET -5.241900 -0.000000 -0.000000 
					CHANNELS 3 Zrotation Yrotation Xrotation
					JOINT RightHand
					{
						OFFSET -3.444170 -0.000000 -0.000000 
						CHANNELS 3 Zrotation Yrotation Xrotation
						JOINT RightHandIndex1
						{
							OFFSET -0.622530 -0.000000 -0.000000 
							CHANNELS 3 Zrotation Yrotation Xrotation
							End Site
							{
								OFFSET 0.000000 0.000000 0.000000 
							}
						}
					}
				}
			}
		}
	}
}
MOTION
Frames: 18
Frame Time: 0.041667
15.029432 17.889648 -10.132700 5.907393 -80.902020 -2.783048 -16.354051 -7.408812 -7.219864 -0.209202 7.142181 21.402459 0.216571 0.059193 -6.360585 0.454100 -4.323100 -11.987300 22.835250 4.295614 -7.929164 -2.044298 -9.489298 28.812761 0.213022 -3.896437 -10.558976 -0.086000 -1.891100 5.204700 1.371355 1.912276 -0.586798 -1.203034 0.937673 -3.843875 4.292883 4.538941 18.664940 3.832600 1.516100 13.709400 -85.004924 2.574388 23.781752 13.281034 -18.619738 -2.552113 -1.581280 -2.161733 9.826691 -7.125000 0.000000 0.000000 84.410534 -3.984513 15.237179 -14.648888 21.722859 -2.973247 0.404093 -0.221673 8.517283 7.125000 0.000000 0.000000 
15.030834 17.890650 -10.135704 5.896087 -80.914724 -2.742433 -16.334208 -7.406797 -7.245503 -0.213462 7.133452 21.376651 0.213440 0.073049 -6.340166 0.457400 -4.338400 -12.030600 22.837562 4.309133 -7.974042 -2.047308 -9.493993 28.827570 0.187939 -3.792637 -10.587088 -0.107300 -2.112100 5.815500 1.381466 1.903283 -0.600476 -1.165316 0.934513 -3.870150 4.222369 4.504969 18.610624 3.778200 1.502700 13.668500 -84.968595 2.615517 24.084216 13.315966 -18.675199 -2.570828 -1.542142 -2.184052 9.491740 -7.125000 0.000000 0.000000 84.431041 -3.985737 15.207888 -14.661181 21.738456 -2.977705 0.405504 -0.222600 8.580727 7.125000 0.000000 0.000000 
15.032737 17.890750 -10.137808 6.371987 -80.924775 -3.204206 -16.400457 -7.330661 -7.286705 -0.214265 7.128726 21.362247 0.229699 -0.031383 -6.326777 0.444700 -4.278500 -11.861500 22.760416 4.325634 -8.003470 -2.052870 -9.502415 28.856022 0.190428 -3.797737 -10.564726 -0.100300 -2.041800 5.621300 1.395318 1.880340 -0.602786 -1.074103 0.925172 -3.885221 4.299178 4.464090 18.517895 3.824200 1.484500 13.593400 -84.972670 2.640158 24.371609 13.335871 -18.705029 -2.582375 -1.514720 -2.195781 9.103378 -7.125000 0.000000 0.000000 84.385287 -3.991522 15.278836 -14.668744 21.746458 -2.980170 0.407809 -0.220817 8.620765 7.125000 0.000000 0.000000 
15.033238 17.889548 -10.138208 7.008636 -80.985139 -3.839128 -16.511051 -7.312559 -7.287916 -0.213619 7.132451 21.370335 0.229102 -0.022825 -6.356903 0.440200 -4.257100 -11.801100 22.638510 4.317845 -8.014221 -2.054130 -9.501877 28.857086 0.185340 -3.763660 -10.522180 -0.100000 -2.039300 5.614400 1.384384 1.869373 -0.593198 -1.031492 0.921751 -3.867467 4.427052 4.442961 18.511395 3.906000 1.475800 13.582000 -84.919727 2.647602 24.681860 13.348532 -18.731904 -2.590008 -1.551463 -2.197189 8.591586 -7.125000 0.000000 0.000000 84.382477 -3.962614 15.385153 -14.677519 21.758204 -2.983656 0.409980 -0.219472 8.575181 7.125000 0.000000 0.000000 
15.034940 17.888847 -10.139510 6.600630 -80.985611 -3.454714 -16.440641 -7.343184 -7.271735 -0.213192 7.133732 21.375100 0.218491 0.033607 -6.322129 0.443000 -4.270400 -11.838800 22.729516 4.434935 -7.952963 -2.051658 -9.502817 28.856656 0.210949 -3.896738 -10.595631 -0.101900 -2.059000 5.668600 1.410105 1.846942 -0.576337 -1.011038 0.909882 -3.852707 4.333690 4.496858 18.562615 3.872900 1.486300 13.625300 -84.918358 2.632085 24.920682 13.379725 -18.782478 -2.604388 -1.585887 -2.199227 8.272549 -7.125000 0.000000 0.000000 84.379363 -3.934518 15.483698 -14.722235 21.819516 -3.001695 0.412051 -0.215413 8.514346 7.125000 0.000000 0.000000 
15.037344 17.889748 -10.142615 6.169734 -80.944348 -3.010507 -16.348397 -7.330085 -7.324006 -0.211176 7.136164 21.382872 0.221190 0.008029 -6.279423 0.442400 -4.267600 -11.830800 22.830279 4.526309 -7.943924 -2.048573 -9.502103 28.850795 0.249686 -4.070276 -10.601979 -0.090400 -1.938700 5.336300 1.444806 1.820487 -0.581229 -0.960459 0.895448 -3.865095 4.288956 4.520271 18.644133 3.862800 1.483700 13.674600 -84.970811 2.583147 24.909572 13.378904 -18.776413 -2.603130 -1.586899 -2.206022 8.249995 -7.125000 0.000000 0.000000 84.339780 -3.972399 15.644163 -14.767238 21.879757 -3.019597 0.415756 -0.213023 8.390249 7.125000 0.000000 0.000000 
15.039648 17.888947 -10.145019 6.605950 -80.940093 -3.434184 -16.411991 -7.314397 -7.352983 -0.208544 7.141514 21.397450 0.228534 -0.043705 -6.266714 0.447500 -4.292100 -11.899800 22.744085 4.422867 -8.004005 -2.049089 -9.499056 28.844314 0.227304 -3.962614 -10.569811 -0.091400 -1.949500 5.366000 1.424977 1.815612 -0.589665 -0.953042 0.895011 -3.891445 4.328010 4.511641 18.687166 3.883200 1.480500 13.690600 -84.929555 2.531481 24.924675 13.348356 -18.729195 -2.590295 -1.582660 -2.200790 8.298123 -7.125000 0.000000 0.000000 84.393969 -3.978213 15.601023 -14.797994 21.922370 -3.032301 0.414392 -0.209401 8.314847 7.125000 0.000000 0.000000 
15.041651 17.889748 -10.146822 6.782266 -80.982213 -3.587977 -16.432290 -7.317963 -7.369952 -0.211920 7.135464 21.378394 0.220728 -0.012321 -6.215701 0.441200 -4.262200 -11.815400 22.701001 4.341747 -8.090579 -2.054799 -9.504973 28.864590 0.187265 -3.774725 -10.530476 -0.106600 -2.105000 5.796000 1.404337 1.819708 -0.589182 -0.985762 0.898494 -3.892371 4.267515 4.536001 18.619308 3.834000 1.498600 13.633900 -84.867595 2.480861 24.844456 13.334825 -18.710024 -2.584319 -1.599371 -2.170297 8.485648 -7.125000 0.000000 0.000000 84.453346 -3.965342 15.607683 -14.834189 21.972763 -3.047410 0.414693 -0.204963 8.235641 7.125000 0.000000 0.000000 
15.043955 17.891150 -10.149426 6.790340 -81.002141 -3.566656 -16.416449 -7.272439 -7.421735 -0.214148 7.128472 21.357796 0.224657 -0.051912 -6.159075 0.419100 -4.155200 -11.513600 22.706706 4.376723 -8.138215 -2.059512 -9.513064 28.890394 0.180286 -3.743897 -10.529812 -0.109600 -2.134600 5.877700 1.401752 1.791002 -0.592977 -0.994324 0.884723 -3.899239 4.215228 4.550476 18.566783 3.792100 1.510000 13.592700 -84.881785 2.447605 24.629140 13.335804 -18.710230 -2.582512 -1.638065 -2.132263 8.614435 -7.125000 0.000000 0.000000 84.456752 -3.980884 15.823929 -14.876041 22.028720 -3.064399 0.418707 -0.200848 8.108058 7.125000 0.000000 0.000000 
15.044656 17.893354 -10.151529 7.229796 -81.035636 -3.952027 -16.477617 -7.217488 -7.483731 -0.216570 7.124222 21.342956 0.230648 -0.084083 -6.175985 0.414600 -4.133100 -11.451400 22.628831 4.397495 -8.206350 -2.063538 -9.518957 28.909831 0.169021 -3.691763 -10.521438 -0.114300 -2.179600 6.002300 1.391886 1.786898 -0.596103 -0.975719 0.885619 -3.880417 4.168225 4.539603 18.623423 3.765500 1.499900 13.627800 -84.889475 2.397667 24.620535 13.347322 -18.726499 -2.586767 -1.655411 -2.123749 8.524909 -7.125000 0.000000 0.000000 84.483517 -3.982040 15.876223 -14.914260 22.080399 -3.079497 0.423367 -0.200912 8.109764 7.125000 0.000000 0.000000 
15.045457 17.892452 -10.151630 7.233290 -81.059854 -3.947040 -16.485126 -7.160415 -7.512141 -0.218618 7.120243 21.330558 0.223699 -0.042232 -6.171632 0.446900 -4.289000 -11.891100 22.624756 4.402208 -8.226804 -2.065588 -9.522083 28.920036 0.163394 -3.664593 -10.513160 -0.119300 -2.226500 6.132200 1.385329 1.778051 -0.596514 -0.987966 0.881238 -3.877761 4.180378 4.546862 18.672704 3.764400 1.507700 13.651300 -84.822411 2.402025 24.806128 13.414269 -18.832185 -2.617989 -1.631099 -2.156578 8.438342 -7.125000 0.000000 0.000000 84.534197 -4.001860 15.894453 -14.949638 22.133879 -3.095418 0.421366 -0.204868 8.123039 7.125000 0.000000 0.000000 
15.045157 17.892853 -10.153533 7.388251 -81.108669 -4.092228 -16.505516 -7.141034 -7.514726 -0.222781 7.113688 21.309666 0.217204 0.008661 -6.206149 0.476900 -4.428700 -12.286000 22.608608 4.457688 -8.226232 -2.068108 -9.526585 28.934496 0.162693 -3.662580 -10.518604 -0.122800 -2.259300 6.222900 1.384022 1.748272 -0.590497 -0.960216 0.867202 -3.850216 4.248533 4.570848 18.815903 3.802100 1.521200 13.738000 -84.805451 2.373411 24.850649 13.469815 -18.915197 -2.643127 -1.598618 -2.179038 8.483461 -7.125000 0.000000 0.000000 84.536266 -3.975965 16.040616 -14.960818 22.151414 -3.101114 0.419192 -0.206428 8.066941 7.125000 0.000000 0.000000 
15.045557 17.893855 -10.153733 7.561052 -81.149038 -4.240627 -16.528341 -7.232144 -7.498033 -0.228572 7.107752 21.288922 0.199388 0.117438 -6.210796 0.476700 -4.427900 -12.283800 22.574392 4.457597 -8.265882 -2.070726 -9.530070 28.945681 0.157208 -3.628306 -10.480057 -0.120400 -2.236900 6.160900 1.403785 1.739720 -0.584684 -0.919114 0.861977 -3.816545 4.341565 4.572002 18.962222 3.872800 1.511900 13.821300 -84.930668 2.288001 24.627343 13.466674 -18.895106 -2.639196 -1.568006 -2.171197 8.851676 -7.125000 0.000000 0.000000 84.478508 -3.956224 16.109910 -14.982235 22.182874 -3.110779 0.416124 -0.206029 8.000375 7.125000 0.000000 0.000000 
15.047761 17.894155 -10.153833 7.595389 -81.151457 -4.261340 -16.538680 -7.252602 -7.503985 -0.234436 7.097993 21.257665 0.187325 0.179468 -6.172258 0.503500 -4.548900 -12.626300 22.565143 4.449491 -8.305365 -2.074288 -9.535640 28.964445 0.159379 -3.636076 -10.473079 -0.115500 -2.190800 6.033300 1.416266 1.754003 -0.587176 -0.901795 0.865611 -3.825044 4.574952 4.482723 19.119432 4.001700 1.476900 13.901600 -84.977087 2.260410 24.683503 13.491811 -18.922164 -2.651357 -1.516183 -2.166098 8.972399 -7.125000 0.000000 0.000000 84.450650 -3.948493 16.089093 -14.999469 22.208276 -3.118076 0.415457 -0.206264 7.980277 7.125000 0.000000 0.000000 
15.050866 17.894255 -10.154434 7.768628 -81.135704 -4.414147 -16.565514 -7.269830 -7.513316 -0.239765 7.089311 21.229773 0.182237 0.208257 -6.165264 0.525000 -4.643400 -12.894200 22.537588 4.486656 -8.336001 -2.076538 -9.540466 28.980243 0.177132 -3.715003 -10.473715 -0.106100 -2.100200 5.782700 1.395585 1.714523 -0.596072 -0.921474 0.844116 -3.841329 4.825621 4.380719 19.310670 4.110900 1.455000 14.005100 -84.847555 2.281583 25.087822 13.549845 -19.018932 -2.680740 -1.508633 -2.194360 8.527497 -7.125000 0.000000 0.000000 84.485135 -3.942150 16.221064 -15.004551 22.216454 -3.120957 0.416387 -0.205288 7.913197 7.125000 0.000000 0.000000 
15.054171 17.894656 -10.153232 7.645544 -81.125199 -4.274886 -16.548942 -7.418976 -7.465910 -0.247596 7.080094 21.199836 0.158009 0.355801 -6.168683 0.503400 -4.548200 -12.624400 22.544950 4.453282 -8.399717 -2.080646 -9.546597 28.999986 0.169604 -3.676663 -10.454895 -0.108500 -2.123900 5.848100 1.367291 1.690767 -0.608967 -1.012902 0.828660 -3.866243 4.971224 4.286957 19.453673 4.159500 1.432300 14.077100 -84.752460 2.279293 25.258396 13.557162 -19.037150 -2.684559 -1.548348 -2.200592 8.384199 -7.125000 0.000000 0.000000 84.554989 -3.951775 16.303553 -15.008809 22.225486 -3.124280 0.413728 -0.206329 7.943572 7.125000 0.000000 0.000000 
15.055172 17.895257 -10.152130 7.360272 -81.129583 -3.953763 -16.503455 -7.321669 -7.542744 -0.249961 7.074713 21.182231 0.156503 0.366383 -6.158267 0.544000 -4.725500 -13.127100 22.571812 4.358306 -8.493141 -2.084197 -9.550334 29.012264 0.139766 -3.542412 -10.448121 -0.109400 -2.132700 5.872500 1.331340 1.715283 -0.610138 -1.168610 0.837706 -3.825065 4.933269 4.194050 19.699110 4.126300 1.385200 14.227700 -84.654674 2.209505 25.369443 13.521885 -18.986133 -2.669500 -1.573179 -2.182947 8.370695 -7.125000 0.000000 0.000000 84.646382 -3.880777 16.211755 -14.981945 22.192481 -3.114250 0.410846 -0.208151 8.016598 7.125000 0.000000 0.000000 
15.055873 17.895658 -10.151129 7.560537 -81.164581 -4.125578 -16.536314 -7.143738 -7.622984 -0.249861 7.069024 21.165384 0.177009 0.238946 -6.143906 0.569800 -4.834500 -13.437100 22.514894 4.252779 -8.578760 -2.088888 -9.553800 29.025717 0.100795 -3.356364 -10.400877 -0.111600 -2.153500 5.930100 1.296855 1.726611 -0.611469 -1.274494 0.842930 -3.782132 4.923618 4.080263 20.173815 4.124400 1.315900 14.537800 -84.622623 2.091515 25.260458 13.479329 -18.914191 -2.650069 -1.564256 -2.147789 8.478057 -7.125000 0.000000 0.000000 84.701150 -3.827464 16.192121 -14.953949 22.154203 -3.102553 0.412464 -0.208888 8.036695 7.125000 0.000000 0.000000 
